<?xml version="1.0"?>
<svg fill="rgba(255, 255, 255, .81)" xmlns="http://www.w3.org/2000/svg"   viewBox="0 0 16 16" class="typesDate" style="width: 16px; height: 16px; display: block; fill: rgba(255, 255, 255, 0.443); flex-shrink: 0; backface-visibility: hidden;"><path d="M8 15.126C11.8623 15.126 15.0615 11.9336 15.0615 8.06445C15.0615 4.20215 11.8623 1.00293 7.99316 1.00293C4.13086 1.00293 0.938477 4.20215 0.938477 8.06445C0.938477 11.9336 4.1377 15.126 8 15.126ZM8 13.7383C4.85547 13.7383 2.33301 11.209 2.33301 8.06445C2.33301 4.91992 4.84863 2.39746 7.99316 2.39746C11.1377 2.39746 13.6738 4.91992 13.6738 8.06445C13.6738 11.209 11.1445 13.7383 8 13.7383ZM4.54102 8.91211H7.99316C8.30078 8.91211 8.54004 8.67285 8.54004 8.37207V3.8877C8.54004 3.58691 8.30078 3.34766 7.99316 3.34766C7.69238 3.34766 7.45312 3.58691 7.45312 3.8877V7.83203H4.54102C4.2334 7.83203 4.00098 8.06445 4.00098 8.37207C4.00098 8.67285 4.2334 8.91211 4.54102 8.91211Z"></path></svg>